<svg width="40" height="40" viewBox="0 0 40 40" fill="none" xmlns="http://www.w3.org/2000/svg">
<g id="briefcase-duotone 1" clip-path="url(#clip0_125_4319)">
<path id="Vector" opacity="0.2" d="M20.0002 23.7496C14.7343 23.7578 9.55979 22.3735 5.00146 19.7368V32.4996C5.00146 32.6637 5.0338 32.8263 5.09661 32.9779C5.15943 33.1296 5.25151 33.2674 5.36758 33.3834C5.48365 33.4995 5.62145 33.5916 5.77311 33.6544C5.92477 33.7172 6.08731 33.7496 6.25146 33.7496H33.7515C33.9156 33.7496 34.0782 33.7172 34.2298 33.6544C34.3815 33.5916 34.5193 33.4995 34.6354 33.3834C34.7514 33.2674 34.8435 33.1296 34.9063 32.9779C34.9691 32.8263 35.0015 32.6637 35.0015 32.4996V19.7354C30.4426 22.3729 25.2672 23.7578 20.0002 23.7496Z" fill="#0A65CC"/>
<path id="Vector_2" d="M33.7515 11.25H6.25146C5.56111 11.25 5.00146 11.8096 5.00146 12.5V32.5C5.00146 33.1904 5.56111 33.75 6.25146 33.75H33.7515C34.4418 33.75 35.0015 33.1904 35.0015 32.5V12.5C35.0015 11.8096 34.4418 11.25 33.7515 11.25Z" stroke="#0A65CC" stroke-width="2" stroke-linecap="round" stroke-linejoin="round"/>
<path id="Vector_3" d="M26.25 11.25V8.75C26.25 8.08696 25.9866 7.45107 25.5178 6.98223C25.0489 6.51339 24.413 6.25 23.75 6.25H16.25C15.587 6.25 14.9511 6.51339 14.4822 6.98223C14.0134 7.45107 13.75 8.08696 13.75 8.75V11.25" stroke="#0A65CC" stroke-width="2" stroke-linecap="round" stroke-linejoin="round"/>
<path id="Vector_4" d="M35.0012 19.7363C30.4423 22.3739 25.2669 23.7588 20 23.7505C14.7339 23.7588 9.55935 22.3744 5.00098 19.7377" stroke="#0A65CC" stroke-width="2" stroke-linecap="round" stroke-linejoin="round"/>
<path id="Vector_5" d="M18.125 18.75H21.875" stroke="#0A65CC" stroke-width="2" stroke-linecap="round" stroke-linejoin="round"/>
</g>
<defs>
<clipPath id="clip0_125_4319">
<rect width="40" height="40" fill="white"/>
</clipPath>
</defs>
</svg>
