<svg width="24" height="24" viewBox="0 0 24 24" fill="none" xmlns="http://www.w3.org/2000/svg">
<g id="Employers Logo">
<path id="Vector" d="M12.532 20.4488L7.60802 20.3568C6.01372 20.3249 4.41549 20.3888 2.85252 20.057C0.474776 19.5614 0.306336 17.1311 0.130061 15.0925C-0.112806 12.2265 -0.0187932 9.30847 0.439521 6.46644C0.698057 4.87154 1.71653 3.9202 3.29125 3.81627C8.60691 3.44053 13.9578 3.4845 19.2617 3.66038C19.8219 3.67636 20.386 3.7643 20.9383 3.86423C23.6647 4.3519 23.7313 7.10599 23.9075 9.42439C24.0838 11.7668 24.0094 14.1211 23.6725 16.4475C23.4022 18.3742 22.8852 19.9891 20.7033 20.145C17.9691 20.3488 15.2975 20.5127 12.5555 20.4608C12.5555 20.4488 12.5398 20.4488 12.532 20.4488ZM9.63714 15.5721C11.6976 14.365 13.7189 13.1778 15.7676 11.9786C13.7032 10.7715 11.6858 9.58428 9.63714 8.38511V15.5721Z" fill="white"/>
</g>
</svg>
