<svg width="32" height="32" viewBox="0 0 32 32" fill="none" xmlns="http://www.w3.org/2000/svg">
<g id="magnifying-glass-plus-duotone 1" clip-path="url(#clip0_125_4440)">
<path id="Vector" opacity="0.2" d="M14.4995 24.999C20.2985 24.999 24.9995 20.298 24.9995 14.499C24.9995 8.70003 20.2985 3.99902 14.4995 3.99902C8.70052 3.99902 3.99951 8.70003 3.99951 14.499C3.99951 20.298 8.70052 24.999 14.4995 24.999Z" fill="#0A65CC"/>
<path id="Vector_2" d="M10.4995 14.5H18.4995" stroke="#0A65CC" stroke-width="2" stroke-linecap="round" stroke-linejoin="round"/>
<path id="Vector_3" d="M14.4995 10.5V18.5" stroke="#0A65CC" stroke-width="2" stroke-linecap="round" stroke-linejoin="round"/>
<path id="Vector_4" d="M14.4995 24.999C20.2985 24.999 24.9995 20.298 24.9995 14.499C24.9995 8.70003 20.2985 3.99902 14.4995 3.99902C8.70052 3.99902 3.99951 8.70003 3.99951 14.499C3.99951 20.298 8.70052 24.999 14.4995 24.999Z" stroke="#0A65CC" stroke-width="2" stroke-linecap="round" stroke-linejoin="round"/>
<path id="Vector_5" d="M21.9238 21.9248L27.9989 27.9999" stroke="#0A65CC" stroke-width="2" stroke-linecap="round" stroke-linejoin="round"/>
</g>
<defs>
<clipPath id="clip0_125_4440">
<rect width="32" height="32" fill="white"/>
</clipPath>
</defs>
</svg>
