<svg width="28" height="28" viewBox="0 0 28 28" fill="none" xmlns="http://www.w3.org/2000/svg">
<g id="star 5">
<g id="Group">
<path id="Vector" d="M12.9241 4.51394C13.3643 3.62214 14.636 3.62214 15.0762 4.51394L17.3262 9.07222C17.5009 9.42604 17.8383 9.67139 18.2287 9.72846L23.2623 10.4642C24.2462 10.608 24.6383 11.8174 23.926 12.5112L20.2856 16.0569C20.0026 16.3326 19.8734 16.73 19.9402 17.1194L20.7991 22.1271C20.9672 23.1075 19.9382 23.855 19.0578 23.3921L14.5587 21.026C14.209 20.8422 13.7913 20.8422 13.4416 21.026L8.94252 23.3921C8.06217 23.855 7.03311 23.1075 7.20125 22.1271L8.06013 17.1194C8.12693 16.73 7.99773 16.3326 7.71468 16.0569L4.07431 12.5112C3.362 11.8174 3.75414 10.608 4.73804 10.4642L9.7716 9.72846C10.162 9.67139 10.4995 9.42604 10.6741 9.07223L12.9241 4.51394Z" fill="#FFAA00"/>
</g>
</g>
</svg>
