<svg width="32" height="32" viewBox="0 0 32 32" fill="none" xmlns="http://www.w3.org/2000/svg">
<g id="user-plus-duotone 1" clip-path="url(#clip0_125_4416)">
<path id="Vector" opacity="0.2" d="M16 20C20.4183 20 24 16.4183 24 12C24 7.58172 20.4183 4 16 4C11.5817 4 8 7.58172 8 12C8 16.4183 11.5817 20 16 20Z" fill="#0A65CC"/>
<path id="Vector_2" d="M22 7H28" stroke="#0A65CC" stroke-width="2" stroke-linecap="round" stroke-linejoin="round"/>
<path id="Vector_3" d="M25 4V10" stroke="#0A65CC" stroke-width="2" stroke-linecap="round" stroke-linejoin="round"/>
<path id="Vector_4" d="M3.87354 26.9988C5.10298 24.8708 6.8708 23.1037 8.99939 21.8752C11.128 20.6467 13.5424 20 16 20C18.4577 20 20.8721 20.6468 23.0007 21.8754C25.1292 23.1039 26.897 24.871 28.1264 26.9991" stroke="#0A65CC" stroke-width="2" stroke-linecap="round" stroke-linejoin="round"/>
<path id="Vector_5" d="M23.5066 14.7728C22.9718 16.2167 22.0316 17.4754 20.7988 18.3979C19.566 19.3203 18.0931 19.8672 16.557 19.9728C15.021 20.0784 13.4871 19.7383 12.1396 18.9933C10.7922 18.2483 9.68847 17.1301 8.96112 15.773C8.23377 14.416 7.91371 12.8778 8.03938 11.3432C8.16505 9.80864 8.7311 8.34301 9.66954 7.12236C10.608 5.90172 11.8789 4.97798 13.3296 4.46212C14.7803 3.94627 16.3491 3.86023 17.8475 4.21436" stroke="#0A65CC" stroke-width="2" stroke-linecap="round" stroke-linejoin="round"/>
</g>
<defs>
<clipPath id="clip0_125_4416">
<rect width="32" height="32" fill="white"/>
</clipPath>
</defs>
</svg>
