<svg width="33" height="32" viewBox="0 0 33 32" fill="none" xmlns="http://www.w3.org/2000/svg">
<g id="Wallet">
<path id="Vector" d="M5.66699 8V24C5.66699 24.5304 5.87771 25.0391 6.25278 25.4142C6.62785 25.7893 7.13656 26 7.66699 26H27.667C27.9322 26 28.1866 25.8946 28.3741 25.7071C28.5616 25.5196 28.667 25.2652 28.667 25V11C28.667 10.7348 28.5616 10.4804 28.3741 10.2929C28.1866 10.1054 27.9322 10 27.667 10H7.66699C7.13656 10 6.62785 9.78929 6.25278 9.41421C5.87771 9.03914 5.66699 8.53043 5.66699 8ZM5.66699 8C5.66699 7.46957 5.87771 6.96086 6.25278 6.58579C6.62785 6.21071 7.13656 6 7.66699 6H24.667" stroke="#0A65CC" stroke-width="2" stroke-linecap="round" stroke-linejoin="round"/>
<path id="Vector_2" d="M23.667 18C23.667 18.2761 23.4431 18.5 23.167 18.5C22.8908 18.5 22.667 18.2761 22.667 18C22.667 17.7239 22.8908 17.5 23.167 17.5C23.4431 17.5 23.667 17.7239 23.667 18Z" fill="#18191C" stroke="#0A65CC" stroke-width="2"/>
</g>
</svg>
