<svg width="80" height="80" viewBox="0 0 80 80" fill="none" xmlns="http://www.w3.org/2000/svg">
<rect width="80" height="80" rx="4" fill="#EDEFF5"/>
<rect x="12" y="12" width="56" height="56" rx="4" fill="#FF0000"/>
<path d="M40.532 48.4488L35.608 48.3568C34.0137 48.3249 32.4155 48.3888 30.8525 48.057C28.4748 47.5614 28.3063 45.1311 28.1301 43.0925C27.8872 40.2265 27.9812 37.3085 28.4395 34.4664C28.6981 32.8715 29.7165 31.9202 31.2913 31.8163C36.6069 31.4405 41.9578 31.4845 47.2617 31.6604C47.8219 31.6764 48.386 31.7643 48.9383 31.8642C51.6647 32.3519 51.7313 35.106 51.9075 37.4244C52.0838 39.7668 52.0094 42.1211 51.6725 44.4475C51.4022 46.3742 50.8852 47.9891 48.7033 48.145C45.9691 48.3488 43.2975 48.5127 40.5555 48.4608C40.5555 48.4488 40.5398 48.4488 40.532 48.4488ZM37.6371 43.5721C39.6976 42.365 41.7189 41.1778 43.7676 39.9786C41.7032 38.7715 39.6858 37.5843 37.6371 36.3851V43.5721Z" fill="white"/>
</svg>
